<svg id="Group_711" data-name="Group 711" xmlns="http://www.w3.org/2000/svg" width="30.152" height="29.398" viewBox="0 0 30.152 29.398">
  <path id="Path_36" data-name="Path 36" d="M29.649,20.973c-1.62-5.211-6.76-8.767-12.921-8.872V6.01a.541.541,0,0,0-.528-.528.568.568,0,0,0-.317.106L.216,16.924a.514.514,0,0,0-.106.739l.106.106L15.883,29.036a.546.546,0,0,0,.739-.106.568.568,0,0,0,.106-.317V22.558c3.8,0,7.006,1.8,8.133,4.507.951,2.324.176,4.823-2.077,6.9a.512.512,0,0,0-.035.739.565.565,0,0,0,.387.176h.422a.4.4,0,0,0,.282-.106C29.015,31.359,31.233,26.043,29.649,20.973Z" transform="translate(0 -5.482)" fill="#aaa"/>
</svg>
