<svg xmlns="http://www.w3.org/2000/svg" xmlns:xlink="http://www.w3.org/1999/xlink" width="221" height="221" viewBox="0 0 221 221">
  <defs>
    <clipPath id="clip-path">
      <rect id="Rectangle_2" data-name="Rectangle 2" width="221" height="221" transform="translate(0.043 0.043)"/>
    </clipPath>
    <clipPath id="clip-path-3">
      <rect id="Rectangle_4" data-name="Rectangle 4" width="51.613" height="51.613"/>
    </clipPath>
  </defs>
  <g id="The_DIGITAL_KITCHEN" data-name="The DIGITAL KITCHEN" transform="translate(-0.043 -4.177)">
    <g id="Group_4" data-name="Group 4" transform="translate(0 4.134)">
      <g id="Group_2" data-name="Group 2" transform="translate(0 0)" clip-path="url(#clip-path)">
        <path id="Path_1" data-name="Path 1" d="M110.284,4q-2.709,0-5.411.135t-5.4.4c-1.794.176-3.588.4-5.37.665s-3.564.571-5.335.923-3.529.747-5.282,1.188S80,8.229,78.269,8.753s-3.441,1.088-5.141,1.7-3.382,1.259-5.052,1.947-3.317,1.423-4.947,2.194-3.241,1.582-4.835,2.435-3.164,1.741-4.711,2.67-3.07,1.894-4.576,2.894-2.976,2.041-4.423,3.117-2.87,2.188-4.27,3.329-2.759,2.323-4.1,3.535-2.647,2.459-3.923,3.735-2.523,2.582-3.735,3.923-2.388,2.706-3.535,4.1-2.253,2.817-3.329,4.27-2.112,2.923-3.117,4.423S16.6,56.048,15.681,57.6s-1.817,3.117-2.67,4.711-1.665,3.206-2.435,4.835S9.07,70.429,8.382,72.094s-1.341,3.353-1.947,5.052-1.176,3.411-1.7,5.141S3.729,85.751,3.294,87.5s-.835,3.511-1.188,5.282-.659,3.547-.923,5.335-.488,3.576-.665,5.37-.312,3.594-.4,5.4C.047,110.673,0,112.478,0,114.284S.047,117.9.135,119.7s.224,3.6.4,5.4.4,3.588.665,5.37.571,3.564.923,5.335.747,3.529,1.188,5.282.918,3.488,1.441,5.217,1.088,3.441,1.7,5.141,1.259,3.382,1.947,5.052,1.423,3.317,2.194,4.947,1.582,3.241,2.435,4.835,1.741,3.164,2.67,4.711,1.894,3.07,2.894,4.576,2.041,2.976,3.117,4.423,2.188,2.87,3.329,4.27,2.323,2.759,3.535,4.1,2.459,2.647,3.735,3.923,2.582,2.523,3.923,3.735,2.706,2.388,4.1,3.535,2.817,2.253,4.27,3.329,2.923,2.112,4.423,3.117,3.023,1.97,4.576,2.894,3.117,1.817,4.711,2.67,3.206,1.665,4.835,2.435,3.282,1.506,4.947,2.194,3.353,1.341,5.052,1.947,3.411,1.176,5.141,1.7,3.464,1.006,5.217,1.441,3.511.835,5.282,1.188,3.547.659,5.335.923,3.576.488,5.37.665,3.594.312,5.4.4,3.606.135,5.411.135,3.611-.047,5.411-.135,3.6-.224,5.4-.4,3.588-.4,5.37-.665,3.564-.571,5.335-.923,3.529-.747,5.282-1.188,3.488-.918,5.217-1.441,3.441-1.088,5.141-1.7,3.382-1.259,5.052-1.947,3.317-1.423,4.947-2.194,3.241-1.582,4.835-2.435,3.164-1.741,4.711-2.67,3.07-1.894,4.576-2.894,2.976-2.041,4.423-3.117,2.87-2.188,4.27-3.329,2.759-2.323,4.1-3.535,2.647-2.459,3.923-3.735,2.523-2.582,3.735-3.923,2.388-2.706,3.535-4.1,2.253-2.817,3.329-4.27,2.112-2.923,3.117-4.423,1.97-3.023,2.894-4.576,1.817-3.117,2.67-4.711,1.665-3.206,2.435-4.835,1.506-3.282,2.194-4.947,1.341-3.353,1.947-5.052,1.176-3.411,1.7-5.141,1.006-3.464,1.441-5.217.835-3.511,1.188-5.282.659-3.547.923-5.335.488-3.576.665-5.37.312-3.594.4-5.4.135-3.606.135-5.411-.047-3.611-.135-5.411-.224-3.6-.4-5.4-.4-3.588-.665-5.37-.571-3.564-.923-5.335-.747-3.529-1.188-5.282-.918-3.488-1.441-5.217-1.088-3.441-1.7-5.141-1.259-3.382-1.947-5.052-1.423-3.317-2.194-4.947-1.582-3.241-2.435-4.835-1.741-3.164-2.67-4.711-1.894-3.07-2.894-4.576-2.041-2.976-3.117-4.423-2.188-2.87-3.329-4.27-2.323-2.759-3.535-4.1-2.459-2.647-3.735-3.923-2.582-2.523-3.923-3.735-2.706-2.388-4.1-3.535-2.817-2.253-4.27-3.329-2.923-2.112-4.423-3.117S168.555,20.6,167,19.681s-3.117-1.817-4.711-2.67-3.206-1.665-4.835-2.435-3.282-1.506-4.947-2.194-3.353-1.341-5.052-1.947-3.411-1.176-5.141-1.7-3.464-1.006-5.217-1.441-3.511-.835-5.282-1.188-3.547-.659-5.335-.923-3.576-.488-5.37-.665-3.594-.312-5.4-.4S112.09,4,110.284,4Z" transform="translate(0 -4.114)" fill="#fda50f"/>
      </g>
      <g id="Group_3" data-name="Group 3" transform="translate(0 0)" clip-path="url(#clip-path)">
        <path id="Path_2" data-name="Path 2" d="M91.446,139.21a29.286,29.286,0,0,0,0,58.571h29.286V168.5A29.281,29.281,0,0,0,91.446,139.21Z" transform="translate(-25.599 -59.796)" fill="#0f2740"/>
      </g>
    </g>
    <g id="Group_17" data-name="Group 17" transform="translate(39.843 86.736)">
      <g id="Group_5" data-name="Group 5" clip-path="url(#clip-path-3)">
        <path id="Path_3" data-name="Path 3" d="M120.8,163.882c-3.206,0-5.605,5.547-5.605,10.511,0,4.611,1.718,6.646,5.605,6.646s5.605-2.059,5.605-6.646C126.409,169.405,124.115,163.882,120.8,163.882Zm0,18.651c-4.717,0-7.093-2.741-7.093-8.135,0-5.035,2.464-12,7.093-12,2.106,0,4.017,1.465,5.329,4.141A18.386,18.386,0,0,1,127.9,174.4C127.9,179.793,125.515,182.533,120.8,182.533Z" transform="translate(-86.671 -151.948)" fill="#fda50f"/>
      </g>
      <g id="Group_6" data-name="Group 6" clip-path="url(#clip-path-3)">
        <path id="Path_4" data-name="Path 4" d="M99.069,182.482H86.641a.741.741,0,1,1,0-1.482H99.064a.749.749,0,0,1,.741.741A.741.741,0,0,1,99.069,182.482Z" transform="translate(-75.219 -159.608)" fill="#fda50f"/>
      </g>
      <g id="Group_7" data-name="Group 7" clip-path="url(#clip-path-3)">
        <path id="Path_5" data-name="Path 5" d="M94.317,182.4H90.752a5.59,5.59,0,0,1-5.352-5.8V163.071a.741.741,0,0,1,1.482,0V176.6a4.117,4.117,0,0,0,3.864,4.311h3.57a4.1,4.1,0,0,0,3.864-4.311V163.071a.741.741,0,0,1,1.482,0V176.6A5.551,5.551,0,0,1,94.317,182.4Z" transform="translate(-75.013 -151.919)" fill="#fda50f"/>
      </g>
      <g id="Group_8" data-name="Group 8" clip-path="url(#clip-path-3)">
        <path id="Path_6" data-name="Path 6" d="M98.781,201.943a.749.749,0,0,1-.741-.741v-5.841a.741.741,0,0,1,1.482,0V201.2A.753.753,0,0,1,98.781,201.943Z" transform="translate(-80.218 -165.217)" fill="#fda50f"/>
      </g>
      <g id="Group_9" data-name="Group 9" clip-path="url(#clip-path-3)">
        <path id="Path_7" data-name="Path 7" d="M95.131,201.943a.749.749,0,0,1-.741-.741v-5.841a.741.741,0,0,1,1.482,0V201.2A.738.738,0,0,1,95.131,201.943Z" transform="translate(-78.715 -165.217)" fill="#fda50f"/>
      </g>
      <g id="Group_10" data-name="Group 10" clip-path="url(#clip-path-3)">
        <path id="Path_8" data-name="Path 8" d="M100.8,174.221a.749.749,0,0,1-.741-.741v-10.3a.741.741,0,1,1,1.482,0v10.3A.734.734,0,0,1,100.8,174.221Z" transform="translate(-81.05 -151.964)" fill="#fda50f"/>
      </g>
      <g id="Group_11" data-name="Group 11" clip-path="url(#clip-path-3)">
        <path id="Path_9" data-name="Path 9" d="M93.221,174.221a.749.749,0,0,1-.741-.741v-10.3a.741.741,0,1,1,1.482,0v10.3A.749.749,0,0,1,93.221,174.221Z" transform="translate(-77.928 -151.964)" fill="#fda50f"/>
      </g>
      <g id="Group_12" data-name="Group 12" clip-path="url(#clip-path-3)">
        <path id="Path_10" data-name="Path 10" d="M97.651,220.286a.742.742,0,0,1-.741-.723l-.341-12.64H94.252l-.294,11.158a.744.744,0,0,1-1.488-.041l.318-11.875a.75.75,0,0,1,.741-.723h3.758a.742.742,0,0,1,.741.723l.359,13.358a.705.705,0,0,1-.735.765Z" transform="translate(-77.924 -169.673)" fill="#fda50f"/>
      </g>
      <g id="Group_13" data-name="Group 13" clip-path="url(#clip-path-3)">
        <path id="Path_11" data-name="Path 11" d="M93.544,146.118a24.321,24.321,0,1,0,24.321,24.321A24.357,24.357,0,0,0,93.544,146.118Zm0,50.125a25.806,25.806,0,1,1,25.8-25.809A25.834,25.834,0,0,1,93.544,196.243Z" transform="translate(-67.74 -144.63)" fill="#fda50f"/>
      </g>
      <g id="Group_14" data-name="Group 14" clip-path="url(#clip-path-3)">
        <path id="Path_12" data-name="Path 12" d="M127.051,201.943a.75.75,0,0,1-.741-.741v-5.841a.741.741,0,0,1,1.482,0V201.2A.746.746,0,0,1,127.051,201.943Z" transform="translate(-91.86 -165.217)" fill="#fda50f"/>
      </g>
      <g id="Group_15" data-name="Group 15" clip-path="url(#clip-path-3)">
        <path id="Path_13" data-name="Path 13" d="M123.411,201.943a.75.75,0,0,1-.741-.741v-5.841a.741.741,0,0,1,1.482,0V201.2A.738.738,0,0,1,123.411,201.943Z" transform="translate(-90.361 -165.217)" fill="#fda50f"/>
      </g>
      <g id="Group_16" data-name="Group 16" clip-path="url(#clip-path-3)">
        <path id="Path_14" data-name="Path 14" d="M121.42,220.162h0a.754.754,0,0,1-.741-.765l.359-13.234a.75.75,0,0,1,.741-.723h3.758a.742.742,0,0,1,.741.723l.318,11.7a.75.75,0,0,1-.723.765h-.024a.742.742,0,0,1-.741-.723l-.3-10.981h-2.317l-.341,12.511A.728.728,0,0,1,121.42,220.162Z" transform="translate(-89.541 -169.673)" fill="#fda50f"/>
      </g>
    </g>
    <g id="Group_35" data-name="Group 35" transform="translate(0 4.134)">
      <g id="Group_18" data-name="Group 18" transform="translate(0 0)" clip-path="url(#clip-path)">
        <path id="Path_15" data-name="Path 15" d="M178.41,156.411v-12.74h-3.858a.514.514,0,0,1-.465-.229,1.411,1.411,0,0,1-.147-.747v-.588a1.4,1.4,0,0,1,.147-.747.514.514,0,0,1,.465-.229h10.693a.514.514,0,0,1,.465.229,1.411,1.411,0,0,1,.147.747v.588a1.4,1.4,0,0,1-.147.747.514.514,0,0,1-.465.229H181.41v12.74c0,.441-.4.659-1.206.659h-.588C178.81,157.07,178.41,156.852,178.41,156.411Z" transform="translate(-71.632 -60.586)" fill="#fafcf7"/>
      </g>
      <g id="Group_19" data-name="Group 19" transform="translate(0 0)" clip-path="url(#clip-path)">
        <path id="Path_16" data-name="Path 16" d="M197.87,156.378V141.709c0-.441.4-.659,1.206-.659h.588c.8,0,1.206.218,1.206.659v5.882h6.858v-5.882c0-.441.4-.659,1.206-.659h.588c.8,0,1.206.218,1.206.659v14.669c0,.441-.4.659-1.206.659h-.588c-.8,0-1.206-.218-1.206-.659v-6.223H200.87v6.223c0,.441-.4.659-1.206.659h-.588C198.27,157.037,197.87,156.819,197.87,156.378Z" transform="translate(-81.486 -60.553)" fill="#fafcf7"/>
      </g>
      <g id="Group_20" data-name="Group 20" transform="translate(0 0)" clip-path="url(#clip-path)">
        <path id="Path_17" data-name="Path 17" d="M226.356,156.817a.868.868,0,0,1-.206-.635v-14.21a.871.871,0,0,1,.206-.647.892.892,0,0,1,.635-.194h7.946a.514.514,0,0,1,.465.229,1.411,1.411,0,0,1,.147.747v.588a1.4,1.4,0,0,1-.147.747.514.514,0,0,1-.465.229h-5.811v3.953H234.3a.514.514,0,0,1,.465.229,1.411,1.411,0,0,1,.147.747v.588a1.4,1.4,0,0,1-.147.747.514.514,0,0,1-.465.229h-5.176v4.311h5.835a.514.514,0,0,1,.465.229,1.411,1.411,0,0,1,.147.747v.588a1.4,1.4,0,0,1-.147.747.514.514,0,0,1-.465.229h-7.97A.828.828,0,0,1,226.356,156.817Z" transform="translate(-93.133 -60.586)" fill="#fafcf7"/>
      </g>
      <g id="Group_21" data-name="Group 21" transform="translate(0 0)" clip-path="url(#clip-path)">
        <path id="Path_18" data-name="Path 18" d="M176.876,191.737a.868.868,0,0,1-.206-.635v-14.21a.87.87,0,0,1,.206-.647.892.892,0,0,1,.635-.194h4.77a6.907,6.907,0,0,1,5.276,2c1.265,1.329,1.894,3.317,1.894,5.947s-.635,4.617-1.894,5.947a6.915,6.915,0,0,1-5.276,2h-4.77A.887.887,0,0,1,176.876,191.737Zm5.341-2.341a3.751,3.751,0,0,0,3.076-1.353,8.016,8.016,0,0,0,0-8.105,3.751,3.751,0,0,0-3.076-1.353h-2.541v10.8h2.541Z" transform="translate(-72.756 -74.967)" fill="#fafcf7"/>
      </g>
      <g id="Group_22" data-name="Group 22" transform="translate(0 0)" clip-path="url(#clip-path)">
        <path id="Path_19" data-name="Path 19" d="M203.19,191.272V176.6c0-.453.406-.682,1.223-.682h.565c.8,0,1.206.229,1.206.682v14.669c0,.453-.4.682-1.206.682h-.565C203.6,191.954,203.19,191.73,203.19,191.272Z" transform="translate(-83.677 -74.913)" fill="#fafcf7"/>
      </g>
      <g id="Group_23" data-name="Group 23" transform="translate(0 0)" clip-path="url(#clip-path)">
        <path id="Path_20" data-name="Path 20" d="M225.438,183.415a.828.828,0,0,1,.206.623v6.223c0,.653-.535,1.1-1.612,1.353a16.143,16.143,0,0,1-3.611.376q-3.679,0-5.494-1.976t-1.817-6.105q0-8.126,7.517-8.129a11.877,11.877,0,0,1,2.147.206,7,7,0,0,1,1.817.559c.476.235.718.488.718.759a1.737,1.737,0,0,1-.218.718,3.331,3.331,0,0,1-.512.782.773.773,0,0,1-.523.341,3,3,0,0,1-.559-.229,6.462,6.462,0,0,0-1.223-.406,6.987,6.987,0,0,0-1.694-.182,3.946,3.946,0,0,0-3.347,1.382,6.748,6.748,0,0,0-1.053,4.135q0,5.611,4.294,5.605a11.22,11.22,0,0,0,2.182-.206v-3.476h-2.223a.514.514,0,0,1-.465-.229,1.411,1.411,0,0,1-.147-.747V184.2a1.4,1.4,0,0,1,.147-.747.514.514,0,0,1,.465-.229h4.382A.908.908,0,0,1,225.438,183.415Z" transform="translate(-87.763 -74.856)" fill="#fafcf7"/>
      </g>
      <g id="Group_24" data-name="Group 24" transform="translate(0 0)" clip-path="url(#clip-path)">
        <path id="Path_21" data-name="Path 21" d="M240.05,191.272V176.6c0-.453.406-.682,1.223-.682h.565c.8,0,1.206.229,1.206.682v14.669c0,.453-.4.682-1.206.682h-.565C240.462,191.954,240.05,191.73,240.05,191.272Z" transform="translate(-98.857 -74.913)" fill="#fafcf7"/>
      </g>
      <g id="Group_25" data-name="Group 25" transform="translate(0 0)" clip-path="url(#clip-path)">
        <path id="Path_22" data-name="Path 22" d="M253.01,191.321v-12.74h-3.858a.514.514,0,0,1-.465-.229,1.411,1.411,0,0,1-.147-.747v-.588a1.4,1.4,0,0,1,.147-.747.514.514,0,0,1,.465-.229h10.693a.514.514,0,0,1,.465.229,1.411,1.411,0,0,1,.147.747v.588a1.4,1.4,0,0,1-.147.747.514.514,0,0,1-.465.229H256.01v12.74c0,.441-.4.659-1.206.659h-.588C253.416,191.98,253.01,191.762,253.01,191.321Z" transform="translate(-102.353 -74.963)" fill="#fafcf7"/>
      </g>
      <g id="Group_26" data-name="Group 26" transform="translate(0 0)" clip-path="url(#clip-path)">
        <path id="Path_23" data-name="Path 23" d="M269.42,191.5a2.267,2.267,0,0,1,.088-.388l5.129-14.71c.088-.288.476-.429,1.159-.429h1c.665,0,1.053.141,1.159.429l5.129,14.71a1.361,1.361,0,0,1,.07.388c0,.3-.365.453-1.088.453h-.706c-.665,0-1.053-.141-1.159-.429l-1.047-3.111h-5.811l-1.047,3.111c-.106.288-.441.429-1,.429h-.635C269.838,191.951,269.42,191.8,269.42,191.5Zm8.876-5.629-1.659-4.994a7.809,7.809,0,0,1-.318-1.406h-.088c-.018.088-.053.288-.112.588a4.822,4.822,0,0,1-.229.818l-1.7,4.994Z" transform="translate(-110.952 -74.934)" fill="#fafcf7"/>
      </g>
      <g id="Group_27" data-name="Group 27" transform="translate(0 0)" clip-path="url(#clip-path)">
        <path id="Path_24" data-name="Path 24" d="M296.336,191.7a.868.868,0,0,1-.206-.635v-14.44c0-.441.4-.659,1.206-.659h.565a1.971,1.971,0,0,1,.918.159.531.531,0,0,1,.282.5v12.74h5.382a.479.479,0,0,1,.453.241,1.57,1.57,0,0,1,.135.735v.588a1.553,1.553,0,0,1-.135.735.479.479,0,0,1-.453.241h-7.517A.862.862,0,0,1,296.336,191.7Z" transform="translate(-121.952 -74.934)" fill="#fafcf7"/>
      </g>
      <g id="Group_28" data-name="Group 28" transform="translate(0 0)" clip-path="url(#clip-path)">
        <path id="Path_25" data-name="Path 25" d="M176.52,226.208V211.539c0-.441.4-.659,1.206-.659h.571c.818,0,1.223.218,1.223.659v6.382h.088l4.494-6.652c.182-.259.618-.388,1.317-.388h.794a2.833,2.833,0,0,1,.818.088c.182.059.271.135.271.229a.885.885,0,0,1-.182.476l-4.835,6.835,5.629,7.582a.851.851,0,0,1,.182.429c0,.229-.394.341-1.182.341h-.953q-1.068,0-1.341-.388l-5.017-7.041h-.088V226.2c0,.441-.406.659-1.223.659h-.571C176.92,226.867,176.52,226.643,176.52,226.208Z" transform="translate(-72.694 -89.311)" fill="#fafcf7"/>
      </g>
      <g id="Group_29" data-name="Group 29" transform="translate(0 0)" clip-path="url(#clip-path)">
        <path id="Path_26" data-name="Path 26" d="M198.6,226.192V211.522c0-.453.406-.682,1.223-.682h.565c.8,0,1.206.229,1.206.682v14.669c0,.453-.4.682-1.206.682h-.565C199.006,226.868,198.6,226.644,198.6,226.192Z" transform="translate(-81.787 -89.294)" fill="#fafcf7"/>
      </g>
      <g id="Group_30" data-name="Group 30" transform="translate(0 0)" clip-path="url(#clip-path)">
        <path id="Path_27" data-name="Path 27" d="M211.57,226.241V213.5h-3.858a.514.514,0,0,1-.465-.229,1.411,1.411,0,0,1-.147-.747v-.588a1.4,1.4,0,0,1,.147-.747.514.514,0,0,1,.465-.229H218.4a.514.514,0,0,1,.465.229,1.411,1.411,0,0,1,.147.747v.588a1.4,1.4,0,0,1-.147.747.527.527,0,0,1-.465.229H214.57v12.74c0,.441-.4.659-1.206.659h-.588C211.97,226.9,211.57,226.676,211.57,226.241Z" transform="translate(-85.287 -89.344)" fill="#fafcf7"/>
      </g>
      <g id="Group_31" data-name="Group 31" transform="translate(0 0)" clip-path="url(#clip-path)">
        <path id="Path_28" data-name="Path 28" d="M231.516,224.924q-1.809-1.976-1.806-6.152,0-8.082,7.517-8.082a10.9,10.9,0,0,1,2.247.241,6.225,6.225,0,0,1,1.77.6c.376.212.565.441.565.682a1.737,1.737,0,0,1-.218.718,3.71,3.71,0,0,1-.5.782c-.188.229-.359.341-.512.341a2.741,2.741,0,0,1-.547-.229,6.645,6.645,0,0,0-1.194-.412,6.721,6.721,0,0,0-1.67-.182,3.965,3.965,0,0,0-3.323,1.365,8.685,8.685,0,0,0,0,8.376,3.9,3.9,0,0,0,3.282,1.388,6.444,6.444,0,0,0,1.817-.229,10.083,10.083,0,0,0,1.476-.565,1.359,1.359,0,0,1,.5-.182.716.716,0,0,1,.512.329,3.174,3.174,0,0,1,.441.759,1.858,1.858,0,0,1,.182.612c0,.347-.259.665-.77.953a6.447,6.447,0,0,1-1.882.635,11.659,11.659,0,0,1-2.27.229Q233.321,226.9,231.516,224.924Z" transform="translate(-94.599 -89.232)" fill="#fafcf7"/>
      </g>
      <g id="Group_32" data-name="Group 32" transform="translate(0 0)" clip-path="url(#clip-path)">
        <path id="Path_29" data-name="Path 29" d="M254.91,226.208V211.539c0-.441.4-.659,1.206-.659h.588c.8,0,1.206.218,1.206.659v5.882h6.858v-5.882c0-.441.4-.659,1.206-.659h.588c.8,0,1.206.218,1.206.659v14.669c0,.441-.4.659-1.206.659h-.588c-.8,0-1.206-.218-1.206-.659v-6.223H257.9v6.223c0,.441-.4.659-1.206.659h-.588C255.31,226.867,254.91,226.643,254.91,226.208Z" transform="translate(-104.977 -89.311)" fill="#fafcf7"/>
      </g>
      <g id="Group_33" data-name="Group 33" transform="translate(0 0)" clip-path="url(#clip-path)">
        <path id="Path_30" data-name="Path 30" d="M283.406,226.647a.867.867,0,0,1-.206-.635V211.8a.87.87,0,0,1,.206-.647.893.893,0,0,1,.635-.194h7.946a.514.514,0,0,1,.465.229,1.411,1.411,0,0,1,.147.747v.588a1.4,1.4,0,0,1-.147.747.514.514,0,0,1-.465.229h-5.811v3.953h5.176a.514.514,0,0,1,.465.229,1.411,1.411,0,0,1,.147.747v.588a1.4,1.4,0,0,1-.147.747.514.514,0,0,1-.465.229h-5.176v4.311h5.835a.514.514,0,0,1,.465.229,1.412,1.412,0,0,1,.147.747v.588a1.4,1.4,0,0,1-.147.747.514.514,0,0,1-.465.229h-7.97A.842.842,0,0,1,283.406,226.647Z" transform="translate(-116.627 -89.344)" fill="#fafcf7"/>
      </g>
      <g id="Group_34" data-name="Group 34" transform="translate(0 0)" clip-path="url(#clip-path)">
        <path id="Path_31" data-name="Path 31" d="M304,226.208V211.539c0-.441.4-.659,1.206-.659h.818a2.348,2.348,0,0,1,.806.112.931.931,0,0,1,.488.429l5.811,8.876a10.979,10.979,0,0,1,.794,1.365l.094-.024c-.029-.347-.047-.865-.047-1.541v-8.558c0-.441.4-.659,1.2-.659h.5c.8,0,1.206.218,1.206.659v14.669c0,.441-.4.659-1.206.659h-.729a2.066,2.066,0,0,1-.759-.112,1.1,1.1,0,0,1-.488-.406l-5.947-9.034a8.3,8.3,0,0,1-.794-1.341l-.088.024c.029.347.047.865.047,1.541v8.676c0,.441-.4.659-1.206.659h-.5C304.4,226.867,304,226.643,304,226.208Z" transform="translate(-125.193 -89.311)" fill="#fafcf7"/>
      </g>
    </g>
  </g>
</svg>
