<svg xmlns="http://www.w3.org/2000/svg" width="28.134" height="25.786" viewBox="0 0 28.134 25.786">
  <path id="shopping-cart" d="M26.978,26.033h-22L4.654,22.39A1.155,1.155,0,0,0,3.5,21.338H1.155a1.155,1.155,0,1,0,0,2.311H2.447c.706,7.861-1.118-12.457,1.329,14.805A4.445,4.445,0,0,0,5.44,41.466a3.5,3.5,0,1,0,6.052.963h6.324a3.5,3.5,0,1,0,3.294-2.311H8.206a2.146,2.146,0,0,1-1.973-1.3L24.7,37.732a1.156,1.156,0,0,0,1.053-.873l2.348-9.39a1.156,1.156,0,0,0-1.121-1.436ZM8.2,44.813A1.192,1.192,0,1,1,9.39,43.621,1.193,1.193,0,0,1,8.2,44.813Zm12.911,0A1.192,1.192,0,1,1,22.3,43.621,1.193,1.193,0,0,1,21.109,44.813Zm2.606-9.338L5.922,36.521l-.734-8.177H25.5Z" transform="translate(0 -21.338)" fill="#e1087d"/>
</svg>
